<svg width="74" height="96" viewBox="0 0 74 96" fill="none" xmlns="http://www.w3.org/2000/svg">
<g clip-path="url(#clip0_2462_15456)">
<path d="M46.8342 0V20.2724L37.9366 20.1366L27.1659 20.3005V0L0.473175 9.36585V67.9024L27.1659 58.5366V46.9932L37.9366 46.8293L46.8342 46.9651V58.5366L73.5268 67.9024V9.36585L46.8342 0Z" fill="#747474"/>
<path d="M10.3495 95.5176H7.43201V86.8355H3.5124V95.5176H0.618347V76.1678H3.5124V84.1428H7.43201V73.358H10.3495V95.5176Z" fill="#747474"/>
<path d="M22.4033 93.7522C22.4033 94.9323 21.818 95.5223 20.6472 95.5223H14.3674C13.2201 95.5223 12.6488 94.9323 12.6488 93.7522V72.3325C12.6488 71.1477 13.2201 70.553 14.3674 70.553H20.6472C21.818 70.553 22.4033 71.1477 22.4033 72.3325V93.7522ZM19.5093 93.0357V73.0349H15.5382V93.0357H19.5093Z" fill="#747474"/>
<path d="M34.6351 95.5176H31.6193L28.4302 86.5264V84.7843H31.2728V69.2838H27.6248V95.5176H24.7307V66.8019H32.4107C33.5721 66.8019 34.1528 67.3966 34.1528 68.5814V84.981C34.1528 85.7958 33.8765 86.325 33.3239 86.5638C33.0289 86.6856 32.4014 86.7512 31.4461 86.7512L34.6351 95.5176Z" fill="#747474"/>
<path d="M39.3461 95.5176H36.4521V62.5873H39.3461V95.5176Z" fill="#747474"/>
<path d="M49.9296 95.5176H41.0414V93.9722L46.4595 69.4103H41.4769V66.8019H49.9108V68.469L44.5067 92.9092H49.9342V95.5176H49.9296Z" fill="#747474"/>
<path d="M61.3559 93.7522C61.3559 94.9323 60.7705 95.5223 59.5998 95.5223H53.32C52.1727 95.5223 51.6014 94.9323 51.6014 93.7522V72.3325C51.6014 71.1477 52.1727 70.553 53.32 70.553H59.5998C60.7705 70.553 61.3559 71.1477 61.3559 72.3325V93.7522ZM58.4619 93.0357V73.0349H54.4907V93.0357H58.4619Z" fill="#747474"/>
<path d="M73.4847 95.5176H70.9512L66.3151 83.3373C66.4369 83.932 66.5024 84.3956 66.5024 84.7328V95.5129H63.6833V73.3533H66.2168L70.8529 88.0951C70.7311 87.5004 70.6656 87.0368 70.6656 86.6996V76.163H73.4847V95.5129V95.5176Z" fill="#747474"/>
</g>
<defs>
<clipPath id="clip0_2462_15456">
<rect width="73.0537" height="96" fill="white" transform="translate(0.473175)"/>
</clipPath>
</defs>
</svg>
