<?xml version="1.0" standalone="no"?>
<!DOCTYPE svg PUBLIC "-//W3C//DTD SVG 20010904//EN"
 "http://www.w3.org/TR/2001/REC-SVG-20010904/DTD/svg10.dtd">
<svg version="1.0" xmlns="http://www.w3.org/2000/svg"
 width="512.000000pt" height="512.000000pt" viewBox="0 0 512.000000 512.000000"
 preserveAspectRatio="xMidYMid meet">

<g transform="translate(0.000000,512.000000) scale(0.100000,-0.100000)"
fill="#000000" stroke="none">
<path d="M78 4789 c-23 -12 -46 -35 -58 -59 -20 -39 -20 -55 -20 -2170 0
-2116 0 -2131 20 -2170 13 -26 34 -47 60 -60 39 -20 53 -20 2480 -20 2427 0
2441 0 2480 20 26 13 47 34 60 60 20 39 20 54 20 2170 0 2116 0 2131 -20 2170
-13 26 -34 47 -60 60 -39 20 -53 20 -2482 20 -2413 -1 -2443 -1 -2480 -21z
m1132 -519 c0 -222 2 -244 20 -280 13 -26 34 -47 60 -60 39 -20 55 -20 1785
-20 l1745 0 0 -1650 0 -1650 -2260 0 -2260 0 0 1950 0 1950 455 0 455 0 0
-240z m1200 90 l0 -150 -450 0 -450 0 0 150 0 150 450 0 450 0 0 -150z m1200
0 l0 -150 -450 0 -450 0 0 150 0 150 450 0 450 0 0 -150z m1210 0 l0 -150
-455 0 -455 0 0 150 0 150 455 0 455 0 0 -150z"/>
<path d="M1288 3589 c-23 -12 -46 -35 -58 -59 -20 -38 -20 -57 -20 -970 0
-913 0 -932 20 -970 13 -26 34 -47 60 -60 39 -20 56 -20 1270 -20 1214 0 1231
0 1270 20 26 13 47 34 60 60 20 38 20 57 20 970 0 913 0 932 -20 970 -13 26
-34 47 -60 60 -39 20 -56 20 -1272 20 -1208 -1 -1234 -1 -1270 -21z m2322
-729 l0 -450 -43 0 c-42 0 -43 1 -322 281 -154 154 -297 289 -317 300 -21 10
-51 19 -68 19 -17 0 -47 -9 -68 -19 -20 -11 -163 -146 -317 -300 l-280 -281
-342 0 -343 0 0 450 0 450 1050 0 1050 0 0 -450z m-510 -456 c129 -130 255
-249 279 -265 41 -27 52 -29 138 -29 l93 0 0 -150 0 -150 -1050 0 -1050 0 0
150 0 150 390 0 c367 0 393 1 428 19 20 11 147 130 282 265 135 135 247 246
250 246 3 0 111 -106 240 -236z"/>
<path d="M1888 2989 c-43 -22 -78 -81 -78 -129 0 -50 35 -107 80 -130 21 -11
53 -20 70 -20 76 0 150 74 150 150 0 50 -35 107 -80 130 -49 25 -94 25 -142
-1z"/>
<path d="M1288 1189 c-43 -22 -78 -81 -78 -129 0 -50 35 -107 80 -130 39 -20
56 -20 1270 -20 1214 0 1231 0 1270 20 45 23 80 80 80 130 0 50 -35 107 -80
130 -39 20 -56 20 -1272 20 -1208 -1 -1234 -1 -1270 -21z"/>
</g>
</svg>
